<svg xmlns="http://www.w3.org/2000/svg" id="prefix__Group_51" width="24.386" height="18.388" data-name="Group 51" viewBox="0 0 24.386 18.388">
    <path id="prefix__Path_97" fill="#bbb" d="M12.36 40.018a1.583 1.583 0 0 0 .662.171 1.407 1.407 0 0 0 1.134-.582c2.71-3.424 7.972-3.767 10.083-3.732v2.431a1.909 1.909 0 0 0 1.071 1.712 1.421 1.421 0 0 0 1.67-.342l8.381-7.7a1.622 1.622 0 0 0 .536-1.3 1.679 1.679 0 0 0-.567-1.267l-8.381-7.259a1.526 1.526 0 0 0-1.733-.137 1.761 1.761 0 0 0-.945 1.575v2.562c-9.454 2.191-12.037 8.457-12.731 12.05a1.7 1.7 0 0 0 .82 1.818zm13.076-11.334a1.818 1.818 0 0 0 1.355-1.678v-1.473l6.05 5.2-6.05 5.547v-1.4a1.745 1.745 0 0 0-1.481-1.712 11.962 11.962 0 0 0-1.26-.034 17.885 17.885 0 0 0-8.728 2.089c1.478-2.602 4.378-5.375 10.114-6.539z" data-name="Path 97" transform="translate(-11.513 -21.801)"/>
</svg>
